# xmcd
#
# Track frame offsets: 
#        150
#        10129
#        18099
#        29697
#        40580
#        51085
#        61711
#        70968
#        82073
#        92548
#        101993
#        114771
#        126276
#        136500
#        145427
#        153823
#        162677
#        174217
#        184413
#        193233
#        206342
#        218777
#        228638
#        237423
#        250137
#        260696
#        272217
#        282819
#        294051
#        303019
#        313274
#        323460
#        333302
#
# Disc length: 4570 seconds
#
# Revision: 1
# Processed by: cddbd v1.5.2PL0 Copyright (c) Steve Scherf et al.
# Submitted via: ExactAudioCopy v1.1
#
DISCID=d211d821
DTITLE=Various Artist - The Bakersfield Sound (Bear Family) - Disc 7
DYEAR=2019
DGENRE=Country
TTITLE0=Buck Owens - The Heartaches Have Just Started (stereo)
TTITLE1=Gene Moles - Fingerlickin' (mono)
TTITLE2=Al Brumley - I'm Goin' Crazy (mono)
TTITLE3=Bill Handy with Jelly Sanders Combo - Don't Leave Me Cryin' (m
TTITLE3=ono)
TTITLE4=Leo Stephens - Walking In My Sleep Crying Over You (mono)
TTITLE5=Tom Rose - It's Over (mono)
TTITLE6=Buck Owens and Buddy Alan - Let The World Keep On A-Turnin' (s
TTITLE6=tereo)
TTITLE7=Merle Haggard - Too Many Bridges To Cross Over (stereo)
TTITLE8=Dean Sanford - Too Young To Grown Old Over You (mono)
TTITLE9=Tommy Wiggins - Calling All Lovers (mono)
TTITLE10=Larry Daniels and The Buckshots - Buckshot (stereo)
TTITLE11=Bonnie Owens - Lead Me On (stereo)
TTITLE12=Leon Copeland - I'm Out Of My Mind (mono)
TTITLE13=Clarence White - Buckaroo (stereo)
TTITLE14=The Sanland Brothers - Vaccination For The Blues (stereo)
TTITLE15=Red Simpsons - You Put My World Back Together (mono)
TTITLE16=The Strangers - Hammin' It Up (stereo)
TTITLE17=Bob Ross - Lucy Clowers (mono)
TTITLE18=Ronnie Sessions - (I Used To Live) The Life Of Riley (mono)
TTITLE19=Barbara Cheatwood - Married Man (mono)
TTITLE20=Billy Mize - Make It Rain (mono)
TTITLE21=Cliff Crofford - Mention My Name (mono)
TTITLE22=Buck Owens - Sam's Place (live in London) (stereo)
TTITLE23=Merle Haggard - California Cottonfields (stereo)
TTITLE24=Rodney Lay - Not Going Back To Jackson (mono)
TTITLE25=Glenda Blackwell - I Want To Live In Your House (mono)
TTITLE26=Tom Tall - Pitty Pitty Patter (mono)
TTITLE27=Judy Hall - My Old Used To Be (stereo)
TTITLE28=Ira Allen - Love Is Me (mono)
TTITLE29=Faye Hardin - Mistakes I've Made (mono)
TTITLE30=Harold Cox and The Sooners - Pumpkin Center (mono)
TTITLE31=Jerry Dallas - Tears Of Joy (mono)
TTITLE32=Stan Farlow - Devil River (stereo)
EXTD=
EXTT0=
EXTT1=
EXTT2=
EXTT3=
EXTT4=
EXTT5=
EXTT6=
EXTT7=
EXTT8=
EXTT9=
EXTT10=
EXTT11=
EXTT12=
EXTT13=
EXTT14=
EXTT15=
EXTT16=
EXTT17=
EXTT18=
EXTT19=
EXTT20=
EXTT21=
EXTT22=
EXTT23=
EXTT24=
EXTT25=
EXTT26=
EXTT27=
EXTT28=
EXTT29=
EXTT30=
EXTT31=
EXTT32=
PLAYORDER=
